<svg width="58" height="54" viewBox="0 0 58 54" fill="none" xmlns="http://www.w3.org/2000/svg">
<g filter="url(#filter0_d)">
<path d="M29 17.6854L47.5552 1.02737C47.901 0.705957 48.3146 0.449585 48.772 0.273215C49.2293 0.096845 49.7212 0.00400996 50.2189 0.000127062C50.7166 -0.00375583 51.2102 0.0813903 51.6709 0.250599C52.1316 0.419807 52.5501 0.669688 52.9021 0.985661C53.254 1.30163 53.5324 1.67737 53.7209 2.09095C53.9093 2.50453 54.0042 2.94767 53.9999 3.3945C53.9955 3.84134 53.8921 4.28293 53.6957 4.6935C53.4992 5.10408 53.2136 5.47542 52.8556 5.78585L31.6502 24.8231C30.9473 25.454 29.994 25.8084 29 25.8084C28.006 25.8084 27.0527 25.454 26.3498 24.8231L5.14438 5.78585C4.78636 5.47542 4.50079 5.10408 4.30433 4.6935C4.10787 4.28293 4.00447 3.84134 4.00014 3.3945C3.99582 2.94767 4.09066 2.50453 4.27914 2.09095C4.46762 1.67737 4.74596 1.30163 5.09792 0.985661C5.44988 0.669688 5.86841 0.419807 6.32909 0.250599C6.78977 0.0813903 7.28337 -0.00375583 7.7811 0.000127062C8.27883 0.00400996 8.77071 0.096845 9.22804 0.273215C9.68538 0.449585 10.099 0.705957 10.4448 1.02737L29 17.6854ZM29 37.877L47.5552 21.2189C47.901 20.8975 48.3146 20.6411 48.772 20.4648C49.2293 20.2884 49.7212 20.1956 50.2189 20.1917C50.7166 20.1878 51.2102 20.273 51.6709 20.4422C52.1316 20.6114 52.5501 20.8613 52.9021 21.1772C53.254 21.4932 53.5324 21.8689 53.7209 22.2825C53.9093 22.6961 54.0042 23.1392 53.9999 23.5861C53.9955 24.0329 53.8921 24.4745 53.6957 24.8851C53.4992 25.2956 53.2136 25.667 52.8556 25.9774L31.6502 45.0147C30.9473 45.6456 29.994 46 29 46C28.006 46 27.0527 45.6456 26.3498 45.0147L5.14438 25.9774C4.78636 25.667 4.50079 25.2956 4.30433 24.8851C4.10787 24.4745 4.00447 24.0329 4.00014 23.5861C3.99582 23.1392 4.09066 22.6961 4.27914 22.2825C4.46762 21.8689 4.74596 21.4932 5.09792 21.1772C5.44988 20.8613 5.86841 20.6114 6.32909 20.4422C6.78977 20.273 7.28337 20.1878 7.7811 20.1917C8.27883 20.1956 8.77071 20.2884 9.22804 20.4648C9.68538 20.6411 10.099 20.8975 10.4448 21.2189L29 37.877Z" fill="white" fill-opacity="0.7"/>
</g>
<defs>
<filter id="filter0_d" x="0" y="0" width="58" height="54" filterUnits="userSpaceOnUse" color-interpolation-filters="sRGB">
<feFlood flood-opacity="0" result="BackgroundImageFix"/>
<feColorMatrix in="SourceAlpha" type="matrix" values="0 0 0 0 0 0 0 0 0 0 0 0 0 0 0 0 0 0 127 0"/>
<feOffset dy="4"/>
<feGaussianBlur stdDeviation="2"/>
<feColorMatrix type="matrix" values="0 0 0 0 1 0 0 0 0 1 0 0 0 0 1 0 0 0 0.25 0"/>
<feBlend mode="normal" in2="BackgroundImageFix" result="effect1_dropShadow"/>
<feBlend mode="normal" in="SourceGraphic" in2="effect1_dropShadow" result="shape"/>
</filter>
</defs>
</svg>
