<svg width="32" height="32" viewBox="0 0 32 32" fill="none" xmlns="http://www.w3.org/2000/svg">
<g filter="url(#filter0_d)">
<path d="M26 14C26 8.47563 21.5206 4 16 4C10.4756 4 6 8.47563 6 14C6 18.99 9.65562 23.1275 14.4375 23.8769V16.8912H11.8981V14.0006H14.4375V11.7962C14.4375 9.29063 15.9281 7.90687 18.2131 7.90687C19.3075 7.90687 20.4531 8.10188 20.4531 8.10188V10.5625H19.19C17.95 10.5625 17.5625 11.3344 17.5625 12.125V14H20.3356L19.89 16.8906H17.5625V23.8762C22.3406 23.1269 26 18.9894 26 13.9994V14Z" fill="white" fill-opacity="0.71"/>
</g>
<defs>
<filter id="filter0_d" x="0" y="0" width="32" height="32" filterUnits="userSpaceOnUse" color-interpolation-filters="sRGB">
<feFlood flood-opacity="0" result="BackgroundImageFix"/>
<feColorMatrix in="SourceAlpha" type="matrix" values="0 0 0 0 0 0 0 0 0 0 0 0 0 0 0 0 0 0 127 0"/>
<feOffset dy="2"/>
<feGaussianBlur stdDeviation="3"/>
<feColorMatrix type="matrix" values="0 0 0 0 1 0 0 0 0 1 0 0 0 0 1 0 0 0 0.25 0"/>
<feBlend mode="normal" in2="BackgroundImageFix" result="effect1_dropShadow"/>
<feBlend mode="normal" in="SourceGraphic" in2="effect1_dropShadow" result="shape"/>
</filter>
</defs>
</svg>
