<svg width="32" height="32" viewBox="0 0 32 32" fill="none" xmlns="http://www.w3.org/2000/svg">
<g filter="url(#filter0_d)">
<path d="M16 4C10.4777 4 6 8.47768 6 14C6 19.5223 10.4777 24 16 24C21.5223 24 26 19.5223 26 14C26 8.47768 21.5223 4 16 4ZM20.8058 11.5379C20.8125 11.6429 20.8125 11.7522 20.8125 11.8594C20.8125 15.1362 18.317 18.9107 13.7567 18.9107C12.3504 18.9107 11.0469 18.5022 9.94866 17.7991C10.1496 17.8214 10.3415 17.8304 10.5469 17.8304C11.7076 17.8304 12.7746 17.4375 13.625 16.7723C12.5357 16.75 11.6205 16.0357 11.308 15.0536C11.6897 15.1094 12.0335 15.1094 12.4263 15.0089C11.8655 14.895 11.3613 14.5904 10.9996 14.1468C10.6379 13.7033 10.4408 13.1482 10.442 12.5759V12.5446C10.7701 12.7299 11.1563 12.8438 11.5603 12.8594C11.2206 12.633 10.9421 12.3264 10.7494 11.9666C10.5566 11.6068 10.4556 11.205 10.4554 10.7969C10.4554 10.3348 10.5759 9.91295 10.7924 9.54688C11.415 10.3133 12.1918 10.94 13.0725 11.3865C13.9531 11.833 14.9179 12.0892 15.904 12.1384C15.5536 10.4531 16.8125 9.08929 18.3259 9.08929C19.0402 9.08929 19.683 9.38839 20.1362 9.87054C20.6964 9.76563 21.2321 9.5558 21.7098 9.27455C21.5246 9.84821 21.1362 10.3326 20.6205 10.6384C21.1205 10.5848 21.6027 10.4464 22.0491 10.2522C21.7121 10.7478 21.2902 11.1875 20.8058 11.5379Z" fill="white" fill-opacity="0.71"/>
</g>
<defs>
<filter id="filter0_d" x="0" y="0" width="32" height="32" filterUnits="userSpaceOnUse" color-interpolation-filters="sRGB">
<feFlood flood-opacity="0" result="BackgroundImageFix"/>
<feColorMatrix in="SourceAlpha" type="matrix" values="0 0 0 0 0 0 0 0 0 0 0 0 0 0 0 0 0 0 127 0"/>
<feOffset dy="2"/>
<feGaussianBlur stdDeviation="3"/>
<feColorMatrix type="matrix" values="0 0 0 0 1 0 0 0 0 1 0 0 0 0 1 0 0 0 0.25 0"/>
<feBlend mode="normal" in2="BackgroundImageFix" result="effect1_dropShadow"/>
<feBlend mode="normal" in="SourceGraphic" in2="effect1_dropShadow" result="shape"/>
</filter>
</defs>
</svg>
